<?xml version="1.0" encoding="utf-8"?>
<!-- Generator: Adobe Illustrator 28.0.0, SVG Export Plug-In . SVG Version: 6.00 Build 0)  -->
<svg version="1.1" id="Layer_1" xmlns="http://www.w3.org/2000/svg" xmlns:xlink="http://www.w3.org/1999/xlink" x="0px" y="0px"
	 viewBox="0 0 448 638.2" style="enable-background:new 0 0 448 638.2;" xml:space="preserve">
<style type="text/css">
	.st0{fill-rule:evenodd;clip-rule:evenodd;fill:#FFFFFF;}
</style>
<g id="Master-1024x1024">
	<path class="st0" d="M421.6,286.2c3.1-33.9,5.8-132.9,5.8-133.8C427.4,69.9,362.6,1.6,283,0.1h-2.7c-25,0-49.4,6.7-71,19.2h-2.9
		c-68.8,0-128.8,37-160.4,99.1c-19,37-23.5,73.2-26.1,95.2c-0.1,0.5-0.1,1-0.2,1.4c0,0.4,0,1-0.1,1.5l-0.4,4
		c-3.1,25.9-3.2,50.6-0.3,73.7C8.6,314.9,3,337.9,2.6,361.5v0.4c-0.1,6.8-0.6,35.8-1.5,51.9c-0.9,17.5-1.7,45-0.2,78.2
		c0,0.6,0,1.1,0.1,1.7c0.1,1.6,0.1,2.9,0.2,3.8c5.8,78.9,70,140.7,146.2,140.7c3.2,0,6.4-0.2,9.6-0.4c29.8-1.9,57.7-13.1,80.7-31.8
		c49.8-1.9,97.6-21.4,135.5-55.3c47.6-42.2,74.5-102.2,73.8-164.6C446.7,349.9,438,316,421.6,286.2z M329,497
		c-27.6,24.7-62.9,38.4-99.2,38.4c-6.2-0.1-12.6-0.4-18.7-1.3c-1.4,2-2.9,3.9-4.5,5.7c-14,16.4-33.3,26.1-54.3,27.4
		c-1.6,0.1-3.2,0.2-4.8,0.2c-41.1,0-75.6-33.4-78.6-75.9c-0.1-0.8-0.1-1.7-0.1-2.6l-0.1-0.6c-1.4-30.3-0.7-55.2,0.1-70.8
		c1-18,1.6-48.6,1.6-55.3c0.3-20.7,8-39.5,20.4-53.8c-6.2-22.2-8.2-48.8-4.4-80.3l0.5-4.6c0.1-0.4,0.1-0.7,0.1-1.1
		c2.2-18.4,5.4-45.7,18.8-71.7c20-39.1,56.6-61.6,100.4-61.6c2.4,0,5,0.1,7.7,0.2c4.6,0.3,9.3,0.8,13.8,1.7
		c14.2-13.3,33.2-21.6,53.9-21.1c42.9,0.8,77.7,37.5,77.7,81.9c0,1-3.8,119.5-5.6,129.8c-1.1,6.4-2.9,12.5-5.3,18.3
		c20,23.7,30.7,53.2,30.9,86.6C379.9,427.8,361.5,468.2,329,497z"/>
	<path id="scratch-white-fill" class="st0" d="M208.2,301.9c-20.3-3.3-31.2-17.4-25.8-61.1l0.6-5.3c4.5-38,8.3-46.4,25.9-45.4
		c5.1,0.3,11.1,3.7,17,8.8c5.5,6.6,17.7,15.1,24.6,32.1c4.9,12.4,6.6,20.5,7.3,29.3l1.1,10.7v-0.1c1.5,7.3,6.9,13.3,14.3,14.6
		c9.6,1.8,18.9-4.8,20.6-14.8c0.2-1.2,4.6-116.3,4.6-118.2c0-10.1-7.8-18.4-17.7-18.5c-9.8-0.1-17.8,8.2-17.8,18.3
		c0,0.2,0,16.1-0.4,32.1c-14-15.8-31.9-29.9-51.9-31.2c-53.6-3-59.5,48.2-63,77.7l-0.5,5.2c-7.2,58.3,11.5,95,55.5,102.2
		c47.8,7.8,79.7,19.2,80,49.7c0.2,11.9-5.8,24-16.3,33.4c-12.7,11.2-29.6,16.2-45.5,13.5c-5-0.8-9.6-2.2-14-3.7
		c-6.3-3.6-22-13.6-30-25.1c-6.7-9.7-9.1-25-9.8-34.6c0.1-4.3,0.1-7.2,0.1-7.5c0.2-10.2-7.7-18.5-17.4-18.7
		c-9.9-0.2-17.9,8-18.1,18.2c0,0.3-0.4,36.4-1.7,58.1c-1.8,35,0,64.6,0,65.9c0.7,10.2,9.1,17.8,18.9,17.1
		c9.8-0.5,17.2-9.3,16.5-19.5c0-0.2-0.9-14.5-0.8-34.4c13,8.6,30.1,17,50.4,20.6c26.5,4.6,53.7-3.3,74.4-21.8
		c18.6-16.5,29.2-39,28.9-61.8C317.6,319.7,243.7,307.7,208.2,301.9"/>
</g>
</svg>
